<svg width="59" height="202" viewBox="0 0 59 202" fill="none" xmlns="http://www.w3.org/2000/svg">
<line x1="0.5" y1="-0.5" x2="59.7848" y2="-0.5" transform="matrix(0.961815 -0.273701 0.266848 0.963739 1.01721 17.5)" stroke="black" stroke-linecap="round"/>
<line x1="58.385" y1="33.349" x2="1.34903" y2="17.615" stroke="black" stroke-linecap="round"/>
<line x1="0.5" y1="-0.5" x2="59.7848" y2="-0.5" transform="matrix(0.961815 -0.273701 0.266848 0.963739 1.01721 51.5)" stroke="black" stroke-linecap="round"/>
<line x1="58.385" y1="67.349" x2="1.34903" y2="51.615" stroke="black" stroke-linecap="round"/>
<line x1="0.5" y1="-0.5" x2="59.7848" y2="-0.5" transform="matrix(0.961815 -0.273701 0.266848 0.963739 1.01721 85.5)" stroke="black" stroke-linecap="round"/>
<line x1="58.385" y1="101.349" x2="1.34903" y2="85.615" stroke="black" stroke-linecap="round"/>
<line x1="0.5" y1="-0.5" x2="59.7848" y2="-0.5" transform="matrix(0.961815 -0.273701 0.266848 0.963739 1.01721 119.5)" stroke="black" stroke-linecap="round"/>
<line x1="58.385" y1="135.349" x2="1.34903" y2="119.615" stroke="black" stroke-linecap="round"/>
<line x1="0.5" y1="-0.5" x2="59.7848" y2="-0.5" transform="matrix(0.961815 -0.273701 0.266848 0.963739 1.01721 153.5)" stroke="black" stroke-linecap="round"/>
<line x1="58.385" y1="169.349" x2="1.34903" y2="153.615" stroke="black" stroke-linecap="round"/>
<line x1="0.5" y1="-0.5" x2="59.7848" y2="-0.5" transform="matrix(0.961815 -0.273701 0.266848 0.963739 1.01721 187.5)" stroke="black" stroke-linecap="round"/>
<line x1="58.4027" y1="200.379" x2="1.37854" y2="187.597" stroke="black" stroke-linecap="round"/>
<line x1="1.5" y1="0.5" x2="58.5" y2="0.5" stroke="black" stroke-linecap="round"/>
<line x1="1" y1="201.5" x2="59" y2="201.5" stroke="black"/>
</svg>
